<svg id="Layer_1" version="1.1" viewBox="0 0 512 512" xml:space="preserve" xmlns="http://www.w3.org/2000/svg" xmlns:cc="http://creativecommons.org/ns#" xmlns:dc="http://purl.org/dc/elements/1.1/" xmlns:inkscape="http://www.inkscape.org/namespaces/inkscape" xmlns:rdf="http://www.w3.org/1999/02/22-rdf-syntax-ns#" xmlns:sodipodi="http://sodipodi.sourceforge.net/DTD/sodipodi-0.dtd" xmlns:svg="http://www.w3.org/2000/svg">
	<g id="g6436">
		<rect height="512" id="rect2987" width="512" x="0" y="5.6843419e-014" color="white"/>
		<path color="black" d="m 150.41383,431.55931 c 30.32414,-1.32 67.15631,0 103.06447,0 37.06417,0 75.01635,-2.46401 104.90449,0 12.07605,0.99601 23.1841,8.22404 33.13615,1.82401 7.68003,-9.89204 1.98401,-23.1681 3.68401,-36.47617 3.22402,-25.26411 26.52012,-55.55628 -7.37203,-62.0003 -14.43607,13.15606 -4.70403,25.64812 -12.87606,41.94421 -9.90004,19.73209 -45.36821,26.55612 -79.14036,29.17214 -28.98414,2.252 -79.78837,5.15602 -90.18842,-14.58408 -8.78004,-16.66007 -3.68801,-42.5002 -3.68801,-63.8243 0,-24.12012 -2.58801,-47.21222 3.68801,-65.65631 36.82018,2.69202 84.43639,-12.27206 110.42851,3.64402 17.38808,10.65605 7.50003,31.50814 27.60813,38.29618 13.84006,-3.71602 6.45202,-21.6041 5.51602,-38.29618 -0.592,-10.75605 -0.548,-25.87211 0,-38.29618 0.74401,-16.76807 7.21603,-36.21616 -11.04805,-36.47216 -14.34406,11.14805 -3.56002,29.72813 -18.40809,40.11619 -4.74402,3.32801 -15.04806,4.73202 -22.0721,5.48002 -27.58412,2.91201 -70.84832,0.536 -93.87642,-3.65202 -3.17202,-33.60815 -2.90002,-79.40836 0,-113.06452 12.50005,-12.41606 41.25218,-12.84806 60.74028,-12.77206 34.14015,0.136 87.38039,2.97602 97.54444,20.0641 5.53203,9.29604 1.148,28.75213 11.04805,31.00014 19.91609,4.54802 10.23605,-30.98815 11.04805,-47.41622 0.60001,-12.316058 6.04403,-20.248095 3.67202,-29.180131 -6.44403,-8.804046 -16.04807,-4.392028 -22.0801,-3.644024 -62.63228,7.744036 -157.75272,3.644024 -224.53702,3.644024 -7.97604,0 -21.90811,-3.97602 -27.60413,5.472019 -3.85202,21.064102 24.90411,12.356058 34.96415,23.708112 3.27202,3.69202 8.10804,20.00009 9.20405,31.00414 2.91201,29.22814 0,73.86835 0,116.71654 0,45.2762 3.43601,90.94842 0,118.54056 -1.2,9.63604 -7.01203,25.15612 -9.20405,27.35613 -12.54005,12.52805 -45.6882,-1.34802 -42.33618,25.53611 11.64804,7.83604 28.52012,2.50001 44.18019,1.81601 z"/>
	</g>
</svg>
